<svg t="1714187001171" class="icon" viewBox="0 0 1024 1024" version="1.1" xmlns="http://www.w3.org/2000/svg" p-id="4143" width="32" height="32"><path d="M776.97219 256a42.666667 42.666667 0 0 1 41.520762 32.792381l72.899048 306.176a149.333333 149.333333 0 1 1-251.270095 114.176l-0.073143-5.144381h-256a149.333333 149.333333 0 0 1-298.569143 5.12l-0.146286-5.12v-213.333333c0-11.776 9.557333-21.333333 21.333334-21.333334h202.678857c80.554667 0 151.161905 42.520381 190.659047 106.349715a149.333333 149.333333 0 0 0 136.606477-117.101715l0.78019-3.949714c0.902095-4.681143 1.584762-9.48419 1.999238-14.311619l0.073143-0.902095 0.024381-0.24381 0.121905-1.633524 0.292571-4.900571c0.073143-1.974857 0.097524-3.949714 0.097524-5.948952v-152.356572l0.195048 0.219429a21.333333 21.333333 0 0 1 21.138285-18.505143c0-0.048762 115.614476-0.048762 115.638857-0.048762zM234.666667 618.666667a85.333333 85.333333 0 1 0 0 170.666666 85.333333 85.333333 0 0 0 0-170.666666z m554.666666 0a85.333333 85.333333 0 1 0 0 170.666666 85.333333 85.333333 0 0 0 0-170.666666z m-64-298.666667a21.333333 21.333333 0 0 0-21.187047 18.846476l-0.146286 2.486857v85.333334a213.333333 213.333333 0 0 1-177.810286 210.383238l0.75581 2.950095h127.414857a149.308952 149.308952 0 0 1 155.209143-83.968L752.152381 340.601905a27.745524 27.745524 0 0 0-26.819048-20.601905zM341.333333 533.333333H149.333333l-0.024381 48.128a149.333333 149.333333 0 0 1 220.330667 58.538667h78.360381l-0.097524-4.632381A106.691048 106.691048 0 0 0 341.333333 533.333333zM362.666667 170.666667A64 64 0 0 1 426.666667 234.666667V341.333333a64 64 0 0 1-64 64h-170.666667A64 64 0 0 1 128 341.333333V234.666667A64 64 0 0 1 192 170.666667h170.666667zM341.333333 234.666667H213.333333a21.333333 21.333333 0 0 0-21.187047 18.846476l-0.146286 2.486857v64c0 10.825143 8.094476 19.919238 18.846476 21.187048L213.333333 341.333333H341.333333a21.333333 21.333333 0 0 0 21.187048-18.846476l0.146286-2.486857V256A21.333333 21.333333 0 0 0 341.333333 234.666667zM800.01219 170.666667a32.01219 32.01219 0 0 1 0 64.024381h-149.333333a32.01219 32.01219 0 0 1 0-64.024381h149.333333z" fill="#A6C5F6" p-id="4144"></path></svg>