<svg t="1714186991463" class="icon" viewBox="0 0 1024 1024" version="1.1" xmlns="http://www.w3.org/2000/svg" p-id="3937" width="32" height="32"><path d="M513.745 412.267c-59.117 0-107.303 47.623-107.303 106.33 0 58.705 48.082 106.33 107.303 106.33 59.113 0 107.302-47.623 107.302-106.33-0.002-58.707-48.185-106.33-107.302-106.33z m0 171.55c-36.23 0-65.842-29.3-65.842-65.223 0-36.074 29.456-65.275 65.842-65.275 36.383 0 65.888 29.203 65.888 65.275 0 36.03-29.611 65.224-65.888 65.224zM207.025 732.02h48.342v70.66h-48.342v-70.66z m0 109.508h48.342v70.661h-48.342v-70.661z m371.43-71.435H448.163c-13.394 0-24.171 10.677-24.171 23.963 0 0.255 0.102 0.517 0.102 0.621 0 0.254-0.102 0.513-0.102 0.664v156.26c0 13.292 10.777 23.962 24.171 23.962 13.344 0 24.171-10.676 24.171-23.962V818.025h82.877V951.6c0 13.292 10.777 23.962 24.17 23.962 13.341 0 24.114-10.676 24.114-23.962V795.444a23.173 23.173 0 0 0-4.255-13.491c-4.26-7.084-11.956-11.856-20.785-11.856l0.002-0.004zM772.02 732.02h48.343v70.66h-48.343v-70.66z m0 109.508h48.343v70.661h-48.343v-70.661z" p-id="3938" fill="#A6C5F6"></path><path d="M951.32 517.417H718.596V405.545l-48.287-24.837v571.816c0 13.24 10.777 23.916 24.171 23.916 13.344 0 24.118-10.676 24.118-23.916V661.357h232.83c13.39 0 24.167-10.677 24.167-23.967v-96.168c-0.104-13.137-10.88-23.807-24.275-23.805z m-24.168 96.165H719.267v-48.29h207.885v48.29z m-823.53 338.019c0 13.29 10.777 23.964 24.17 23.964 13.343 0 24.17-10.676 24.17-23.964V661.35h-48.338l-0.001 290.25z" p-id="3939" fill="#A6C5F6"></path><path d="M875.422 951.6c0 13.291 10.774 23.965 24.169 23.965s24.171-10.676 24.171-23.964V661.35h-48.34V951.6zM308.888 517.418H76.067c-13.393 0-24.17 10.672-24.17 23.963v96.167c0 13.237 10.777 23.914 24.172 23.914H308.89v291.065c0 13.242 10.775 23.916 24.171 23.916 13.391 0 24.168-9.39 24.168-22.63V381.783l-48.339 24.892-0.002 110.742z m-0.77 96.165H100.234v-48.29h207.884v48.29z" p-id="3940" fill="#A6C5F6"></path><path d="M243.663 386.504c-11.8 6.056-16.522 20.476-10.415 32.328 4.31 8.11 12.777 12.883 21.45 12.883 3.747 0 7.546-0.925 11.035-2.72l247.912-127.058 248.012 127.058a24.012 24.012 0 0 0 11.035 2.72c8.671 0 17.14-4.772 21.395-12.881 6.11-11.697 1.592-26.121-10.363-32.328L537.56 256.965v-41.392l137.835-55.218a23.047 23.047 0 0 0 4.159-2.156h0.102a20.325 20.325 0 0 0 4.664-4.157c0.415-0.36 0.67-0.77 0.928-1.181a24.562 24.562 0 0 0 3.382-5.491v-0.156c0.108-0.513 0.262-0.872 0.366-1.385 0.304-1.026 0.664-1.952 0.922-2.976 0.153-0.77 0.153-1.439 0.257-2.052 0.151-0.924 0.254-1.694 0.254-2.565 0-0.823-0.103-1.592-0.254-2.311-0.104-0.822-0.104-1.59-0.257-2.36-0.105-0.873-0.515-1.901-0.773-2.825-0.15-0.513-0.253-1.026-0.515-1.541 0 0 0-0.102-0.15-0.102-0.514-1.18-1.03-2.207-1.691-3.233-0.105-0.256-0.209-0.667-0.515-0.924-1.541-2.156-3.49-4.106-5.694-5.798a4.627 4.627 0 0 1-0.922-0.77 9.352 9.352 0 0 0-1.44-0.771 44.779 44.779 0 0 0-2.825-1.54c-0.151 0-0.151 0-0.151-0.101l-151.24-61.163c-9.597-3.847-20.116-1.128-26.734 5.955-4.825 4.361-7.952 10.52-7.952 17.6v178.766L243.663 386.504zM537.66 111.962l64.553 26.017-64.553 25.863v-51.88zM899.59 976.85H129.228c-8.62 0-15.601-6.981-15.601-15.447v-1.537c0-8.52 6.977-15.501 15.601-15.501h770.363c8.567 0 15.602 6.981 15.602 15.501v1.537c0 8.466-7.033 15.447-15.602 15.447z" p-id="3941" fill="#A6C5F6"></path></svg>