<svg t="1714187015697" class="icon" viewBox="0 0 1024 1024" version="1.1" xmlns="http://www.w3.org/2000/svg" p-id="4346" width="32" height="32"><path d="M470.272 72.96c26.24-11.968 57.28-11.904 83.52 0l422.272 191.104c29.568 13.504 47.808 39.744 47.872 68.608L1024 332.8v239.232c0 16.32-16 29.568-35.712 29.568-19.84 0-35.712-13.248-35.712-29.568V412.16L553.728 592.64c-12.928 5.888-27.264 8.96-41.728 8.96l-10.752-0.512a101.568 101.568 0 0 1-31.104-8.448L240.704 488.768l0.064 267.84c0 98.112 78.08 141.632 260.16 144.256l17.92 0.128c194.944 0 278.144-43.136 278.144-144.384V606.464c0-16.32 14.72-29.504 32.96-29.504 18.176 0 32.96 13.184 32.96 29.44v150.208c0 194.176-235.904 203.008-331.392 203.392H506.24c-95.424-0.384-331.392-9.216-331.392-203.392L174.72 458.944 47.872 401.472c-26.624-12.16-44.16-34.624-47.36-60.096L0 332.8c0-28.864 18.304-55.168 47.808-68.672z m49.152 51.84a17.728 17.728 0 0 0-14.848 0l-422.4 191.168a18.24 18.24 0 0 0-10.752 16.832c0 2.816 0.768 12.288 10.88 16.832L504.512 540.8a17.536 17.536 0 0 0 14.848 0l422.4-191.168a18.304 18.304 0 0 0 10.816-16.832 18.304 18.304 0 0 0-10.88-16.832z" fill="#A6C5F6" fill-opacity=".65" p-id="4347"></path></svg>