<?xml version="1.0" standalone="no"?><!DOCTYPE svg PUBLIC "-//W3C//DTD SVG 1.1//EN" "http://www.w3.org/Graphics/SVG/1.1/DTD/svg11.dtd"><svg t="1714305093804" class="icon" viewBox="0 0 1024 1024" version="1.1" xmlns="http://www.w3.org/2000/svg" p-id="4270" xmlns:xlink="http://www.w3.org/1999/xlink" width="200" height="200"><path d="M515.04 218.74c-153.6 0-332.8 102.4-409.6 307.2 76.8 153.6 230.4 256 409.6 256 179.2 0 332.8-102.4 409.6-256-76.8-204.81-256-307.2-409.6-307.2z m0 512c-153.6 0-281.6-102.4-307.2-204.8 25.6-102.4 153.6-204.8 307.2-204.8s281.6 102.4 307.2 204.8c-25.6 102.4-153.6 204.8-307.2 204.8z m0-358.4c-16 0-30.4 3.2-44.8 7.2 26.4 12 44.8 38.4 44.8 69.6 0 42.4-34.4 76.8-76.8 76.8-31.2 0-57.6-18.4-69.6-44.8-4 14.4-7.2 28.8-7.2 44.8 0 84.8 68.8 153.6 153.6 153.6s153.6-68.8 153.6-153.6-68.8-153.6-153.6-153.6z m0 0" fill="#5A636B" p-id="4271"></path></svg>